<?xml version="1.0" standalone="no"?>
<!DOCTYPE svg PUBLIC "-//W3C//DTD SVG 20010904//EN"
 "http://www.w3.org/TR/2001/REC-SVG-20010904/DTD/svg10.dtd">
<svg version="1.0" xmlns="http://www.w3.org/2000/svg"
 width="512.000000pt" height="512.000000pt" viewBox="0 0 512.000000 512.000000"
 preserveAspectRatio="xMidYMid meet">
<metadata>
Created by potrace 1.14, written by Peter Selinger 2001-2017
</metadata>
<g transform="translate(0.000000,512.000000) scale(0.100000,-0.100000)"
fill="#000000" stroke="none">
<path d="M2320 4200 l0 -40 -40 0 -40 0 0 -40 0 -40 -40 0 -40 0 0 -80 0 -80
-40 0 -40 0 0 -40 0 -40 -80 0 -80 0 0 -40 0 -40 -40 0 -40 0 0 -80 0 -80 120
0 120 0 0 -40 0 -40 40 0 40 0 0 -80 0 -80 -40 0 -40 0 0 -120 0 -120 -40 0
-40 0 0 -40 0 -40 -40 0 -40 0 0 -40 0 -40 -40 0 -40 0 0 -200 0 -200 -40 0
-40 0 0 -280 0 -280 40 0 40 0 0 -40 0 -40 40 0 40 0 0 200 0 200 40 0 40 0 0
-160 0 -160 40 0 40 0 0 560 0 560 40 0 40 0 0 120 0 120 40 0 40 0 0 80 0 80
120 0 120 0 0 200 0 200 40 0 40 0 0 -80 0 -80 40 0 40 0 0 80 0 80 -40 0 -40
0 0 40 0 40 80 0 80 0 0 -40 0 -40 40 0 40 0 0 -80 0 -80 40 0 40 0 0 -80 0
-80 -40 0 -40 0 0 -40 0 -40 -40 0 -40 0 0 -160 0 -160 40 0 40 0 0 -280 0
-280 40 0 40 0 0 -200 0 -200 40 0 40 0 0 -80 0 -80 40 0 40 0 0 -120 0 -120
-40 0 -40 0 0 -40 0 -40 -40 0 -40 0 0 -40 0 -40 -80 0 -80 0 0 -40 0 -40
-120 0 -120 0 0 40 0 40 -120 0 -120 0 0 40 0 40 -40 0 -40 0 0 40 0 40 -40 0
-40 0 0 -40 0 -40 -80 0 -80 0 0 -40 0 -40 -40 0 -40 0 0 40 0 40 -160 0 -160
0 0 -40 0 -40 -160 0 -160 0 0 -40 0 -40 -40 0 -40 0 0 -40 0 -40 -40 0 -40 0
0 -40 0 -40 -40 0 -40 0 0 -320 0 -320 -80 0 -80 0 0 -54 c0 -45 4 -56 22 -69
13 -8 32 -23 43 -33 79 -73 96 -84 135 -84 37 0 40 -2 40 -28 0 -48 12 -52
172 -52 l148 0 0 -40 0 -40 120 0 120 0 0 40 0 40 -40 0 -40 0 0 440 0 440
-40 0 -40 0 0 -360 0 -360 -200 0 -200 0 0 400 0 400 40 0 40 0 0 40 0 40 40
0 40 0 0 40 0 40 160 0 160 0 0 40 0 40 160 0 160 0 0 -40 0 -40 -40 0 -40 0
0 -40 0 -40 40 0 40 0 0 -40 0 -40 80 0 80 0 0 -40 0 -40 120 0 120 0 0 40 0
40 80 0 80 0 0 -40 0 -40 80 0 80 0 0 -40 0 -40 160 0 160 0 0 40 0 40 40 0
40 0 0 40 0 40 40 0 40 0 0 40 0 40 40 0 40 0 0 -40 0 -40 40 0 40 0 0 40 0
40 160 0 160 0 0 80 0 80 40 0 40 0 0 -40 0 -40 80 0 80 0 0 -40 0 -40 120 0
120 0 0 -80 0 -80 -120 0 -120 0 0 -80 0 -80 -80 0 -80 0 0 -80 0 -80 40 0 40
0 0 40 0 40 40 0 40 0 0 -80 0 -80 -80 0 -80 0 0 -200 0 -200 -80 0 -80 0 0
280 0 280 -40 0 -40 0 0 80 0 80 -40 0 -40 0 0 -40 0 -40 -40 0 -40 0 0 -360
0 -360 -40 0 -40 0 0 200 0 200 -40 0 -40 0 0 -240 0 -240 -160 0 -160 0 0 40
0 40 -40 0 -40 0 0 40 0 40 -40 0 -40 0 0 -40 0 -40 -40 0 -40 0 0 320 0 320
80 0 80 0 0 40 0 40 -80 0 -80 0 0 -40 0 -40 -40 0 -40 0 0 -360 0 -360 -40 0
-40 0 0 40 0 40 -40 0 -40 0 0 -40 0 -40 -120 0 -120 0 0 40 0 40 -160 0 -160
0 0 -40 0 -40 40 0 40 0 0 -40 0 -40 200 0 200 0 0 -40 0 -40 -160 0 -160 0 0
-69 0 -69 44 -11 c25 -6 97 -11 160 -11 l116 0 0 -25 c0 -30 3 -31 179 -45
564 -43 1088 80 1566 368 49 30 102 65 118 78 l29 24 -66 0 -66 0 0 40 0 40
79 0 80 0 3 -30 3 -30 38 26 c33 24 37 32 37 71 l0 44 50 -2 c43 -2 54 1 80
26 17 16 30 35 30 42 0 7 6 13 13 13 7 0 25 13 40 28 22 23 27 37 27 80 l0 52
-80 0 -80 0 0 120 0 120 -40 0 -40 0 0 160 0 160 -40 0 -40 0 0 40 0 40 40 0
40 0 0 40 0 40 -40 0 -40 0 0 -40 0 -40 -40 0 -40 0 0 40 0 40 -120 0 -120 0
0 40 0 40 -80 0 -80 0 0 40 0 40 40 0 40 0 0 80 0 80 -40 0 -40 0 0 -80 0 -80
-160 0 -160 0 0 40 0 40 -40 0 -40 0 0 80 0 80 40 0 40 0 0 -40 0 -40 40 0 40
0 0 40 0 40 40 0 40 0 0 240 0 240 -40 0 -40 0 0 160 0 160 -40 0 -40 0 0 120
0 120 -40 0 -40 0 0 80 0 80 -40 0 -40 0 0 40 0 40 -40 0 -40 0 0 120 0 120
-40 0 -40 0 0 40 0 40 40 0 40 0 0 160 0 160 -40 0 -40 0 0 80 0 80 -40 0 -40
0 0 40 0 40 -40 0 -40 0 0 40 0 40 -240 0 -240 0 0 -40z m-160 -400 l0 -40
-40 0 -40 0 0 40 0 40 40 0 40 0 0 -40z m800 -720 l0 -40 -40 0 -40 0 0 40 0
40 40 0 40 0 0 -40z m-960 -1440 l0 -40 -40 0 -40 0 0 40 0 40 40 0 40 0 0
-40z m160 -80 l0 -40 -40 0 -40 0 0 40 0 40 40 0 40 0 0 -40z m640 0 l0 -40
-40 0 -40 0 0 40 0 40 40 0 40 0 0 -40z m-160 -80 l0 -40 -80 0 -80 0 0 40 0
40 80 0 80 0 0 -40z m1360 -480 l0 -280 -40 0 -40 0 0 280 0 280 40 0 40 0 0
-280z m-240 -320 l0 -40 -40 0 -40 0 0 40 0 40 40 0 40 0 0 -40z m-160 -240
l0 -40 -80 0 -80 0 0 40 0 40 80 0 80 0 0 -40z m160 -40 l0 -80 -40 0 -40 0 0
80 0 80 40 0 40 0 0 -80z m-480 -40 l0 -40 -80 0 -80 0 0 -40 0 -40 -80 0 -80
0 0 40 0 40 80 0 80 0 0 40 0 40 80 0 80 0 0 -40z m-400 -80 l0 -40 -40 0 -40
0 0 40 0 40 40 0 40 0 0 -40z m-480 -160 l0 -40 -120 0 -120 0 0 40 0 40 120
0 120 0 0 -40z"/>
<path d="M1600 2360 l0 -40 -40 0 -40 0 0 -40 0 -40 40 0 40 0 0 40 0 40 40 0
40 0 0 40 0 40 -40 0 -40 0 0 -40z"/>
<path d="M4480 2200 l0 -40 40 0 40 0 0 40 0 40 -40 0 -40 0 0 -40z"/>
<path d="M720 2120 l0 -40 40 0 40 0 0 40 0 40 -40 0 -40 0 0 -40z"/>
<path d="M4000 2120 l0 -40 40 0 40 0 0 40 0 40 -40 0 -40 0 0 -40z"/>
<path d="M1200 1960 l0 -40 -80 0 -80 0 0 -40 0 -40 -320 0 -320 0 0 -40 0
-40 120 0 120 0 0 -40 0 -40 120 0 120 0 0 40 0 40 160 0 160 0 0 40 0 40 40
0 40 0 0 80 0 80 -40 0 -40 0 0 -40z"/>
<path d="M3760 1880 l0 -40 40 0 40 0 0 -40 0 -40 160 0 160 0 0 -40 0 -40
320 0 320 0 0 -40 0 -40 40 0 40 0 0 80 0 80 40 0 40 0 0 40 c0 38 2 40 29 40
34 0 36 2 46 48 7 32 7 32 -34 32 l-41 0 0 -40 0 -40 -40 0 -40 0 0 40 0 40
-40 0 -40 0 0 -40 0 -40 -80 0 -80 0 0 40 0 40 -40 0 -40 0 0 -40 0 -40 -320
0 -320 0 0 40 0 40 -80 0 -80 0 0 -40z"/>
<path d="M720 1480 l0 -40 -40 0 -40 0 0 -40 0 -40 -170 0 c-93 0 -170 -2
-170 -4 0 -3 9 -21 21 -40 l21 -36 189 0 189 0 0 40 0 40 40 0 40 0 0 80 0 80
-40 0 -40 0 0 -40z"/>
<path d="M4320 1480 l0 -40 80 0 80 0 0 40 0 40 -80 0 -80 0 0 -40z"/>
<path d="M3360 1400 l0 -40 40 0 40 0 0 40 0 40 -40 0 -40 0 0 -40z"/>
<path d="M3600 1400 l0 -40 40 0 40 0 0 40 0 40 -40 0 -40 0 0 -40z"/>
<path d="M4640 1400 l0 -40 40 0 40 0 0 40 0 40 -40 0 -40 0 0 -40z"/>
<path d="M4560 1200 l0 -80 63 0 c60 0 63 1 85 35 12 19 22 37 22 40 0 3 -20
5 -45 5 l-45 0 0 40 0 40 -40 0 -40 0 0 -80z"/>
<path d="M1760 1160 l0 -40 40 0 40 0 0 40 0 40 -40 0 -40 0 0 -40z"/>
<path d="M569 943 c5 -10 23 -31 40 -47 l31 -30 0 47 0 47 -40 0 c-36 0 -40
-2 -31 -17z"/>
<path d="M1280 760 l0 -40 40 0 40 0 0 40 0 40 -40 0 -40 0 0 -40z"/>
<path d="M1520 230 c0 -8 61 -40 76 -40 2 0 4 11 4 25 0 23 -4 25 -40 25 -22
0 -40 -4 -40 -10z"/>
</g>
</svg>
